<svg width="683" height="239" viewBox="0 0 683 239" fill="none" xmlns="http://www.w3.org/2000/svg">
<g style="mix-blend-mode:plus-lighter" opacity="0.1" filter="url(#filter0_f_42_85)">
<g filter="url(#filter1_i_42_85)">
<path d="M148.943 74.5915C148.03 75.125 147.346 75.9763 147.022 76.9823L117.805 172.549C116.767 175.942 120.126 178.838 123.125 177.19L143.069 166.129C143.999 165.616 144.698 164.767 145.021 163.755L174.354 67.8107C175.401 64.3849 172 61.5116 168.988 63.1994L148.943 74.5915Z" fill="white"/>
<path d="M148.943 74.5915C148.03 75.125 147.346 75.9763 147.022 76.9823L117.805 172.549C116.767 175.942 120.126 178.838 123.125 177.19L143.069 166.129C143.999 165.616 144.698 164.767 145.021 163.755L174.354 67.8107C175.401 64.3849 172 61.5116 168.988 63.1994L148.943 74.5915Z" fill="url(#paint0_linear_42_85)"/>
<path d="M62.0722 118.596C61.1593 119.13 60.4754 119.981 60.1515 120.987L47.7197 161.402C46.6824 164.795 50.0409 167.691 53.0403 166.043L72.984 154.982C73.9144 154.469 74.6128 153.62 74.9359 152.608L87.4832 111.816C88.5306 108.39 85.1289 105.517 82.1173 107.204L62.0722 118.596Z" fill="white"/>
<path d="M62.0722 118.596C61.1593 119.13 60.4754 119.981 60.1515 120.987L47.7197 161.402C46.6824 164.795 50.0409 167.691 53.0403 166.043L72.984 154.982C73.9144 154.469 74.6128 153.62 74.9359 152.608L87.4832 111.816C88.5306 108.39 85.1289 105.517 82.1173 107.204L62.0722 118.596Z" fill="url(#paint1_linear_42_85)"/>
<path d="M108.109 87.9335C107.196 88.4671 106.512 89.3183 106.188 90.3243L78.79 180.306C77.7528 183.699 81.1112 186.595 84.1106 184.947L104.054 173.886C104.985 173.373 105.683 172.524 106.006 171.512L133.52 81.1528C134.567 77.7269 131.166 74.8537 128.154 76.5414L108.109 87.9335Z" fill="white"/>
<path d="M108.109 87.9335C107.196 88.4671 106.512 89.3183 106.188 90.3243L78.79 180.306C77.7528 183.699 81.1112 186.595 84.1106 184.947L104.054 173.886C104.985 173.373 105.683 172.524 106.006 171.512L133.52 81.1528C134.567 77.7269 131.166 74.8537 128.154 76.5414L108.109 87.9335Z" fill="url(#paint2_linear_42_85)"/>
</g>
</g>
<g filter="url(#filter2_i_42_85)">
<path d="M148.943 74.5915C148.03 75.125 147.346 75.9763 147.022 76.9823L117.805 172.549C116.767 175.942 120.126 178.838 123.125 177.19L143.069 166.129C143.999 165.616 144.698 164.767 145.021 163.755L174.354 67.8107C175.401 64.3849 172 61.5116 168.988 63.1994L148.943 74.5915Z" fill="white"/>
<path d="M148.943 74.5915C148.03 75.125 147.346 75.9763 147.022 76.9823L117.805 172.549C116.767 175.942 120.126 178.838 123.125 177.19L143.069 166.129C143.999 165.616 144.698 164.767 145.021 163.755L174.354 67.8107C175.401 64.3849 172 61.5116 168.988 63.1994L148.943 74.5915Z" fill="url(#paint3_linear_42_85)"/>
<path d="M62.0722 118.596C61.1593 119.13 60.4754 119.981 60.1515 120.987L47.7197 161.402C46.6824 164.795 50.0409 167.691 53.0403 166.043L72.984 154.982C73.9144 154.469 74.6128 153.62 74.9359 152.608L87.4832 111.816C88.5306 108.39 85.1289 105.517 82.1173 107.204L62.0722 118.596Z" fill="white"/>
<path d="M62.0722 118.596C61.1593 119.13 60.4754 119.981 60.1515 120.987L47.7197 161.402C46.6824 164.795 50.0409 167.691 53.0403 166.043L72.984 154.982C73.9144 154.469 74.6128 153.62 74.9359 152.608L87.4832 111.816C88.5306 108.39 85.1289 105.517 82.1173 107.204L62.0722 118.596Z" fill="url(#paint4_linear_42_85)"/>
<path d="M108.109 87.9335C107.196 88.4671 106.512 89.3183 106.188 90.3243L78.79 180.306C77.7528 183.699 81.1112 186.595 84.1106 184.947L104.054 173.886C104.985 173.373 105.683 172.524 106.006 171.512L133.52 81.1528C134.567 77.7269 131.166 74.8537 128.154 76.5414L108.109 87.9335Z" fill="white"/>
<path d="M108.109 87.9335C107.196 88.4671 106.512 89.3183 106.188 90.3243L78.79 180.306C77.7528 183.699 81.1112 186.595 84.1106 184.947L104.054 173.886C104.985 173.373 105.683 172.524 106.006 171.512L133.52 81.1528C134.567 77.7269 131.166 74.8537 128.154 76.5414L108.109 87.9335Z" fill="url(#paint5_linear_42_85)"/>
</g>
<mask id="mask0_42_85" style="mask-type:alpha" maskUnits="userSpaceOnUse" x="40" y="40" width="140" height="159">
<path d="M148.943 74.5915C148.03 75.125 147.346 75.9763 147.022 76.9823L117.805 172.549C116.767 175.942 120.126 178.838 123.125 177.19L143.069 166.129C143.999 165.616 144.698 164.767 145.021 163.755L174.354 67.8107C175.401 64.3849 172 61.5116 168.988 63.1994L148.943 74.5915Z" fill="white"/>
<path d="M148.943 74.5915C148.03 75.125 147.346 75.9763 147.022 76.9823L117.805 172.549C116.767 175.942 120.126 178.838 123.125 177.19L143.069 166.129C143.999 165.616 144.698 164.767 145.021 163.755L174.354 67.8107C175.401 64.3849 172 61.5116 168.988 63.1994L148.943 74.5915Z" fill="url(#paint6_linear_42_85)"/>
<path d="M62.0722 118.596C61.1593 119.13 60.4754 119.981 60.1515 120.987L47.7197 161.402C46.6824 164.795 50.0409 167.691 53.0403 166.043L72.984 154.982C73.9144 154.469 74.6128 153.62 74.9359 152.608L87.4832 111.816C88.5306 108.39 85.1289 105.517 82.1173 107.204L62.0722 118.596Z" fill="white"/>
<path d="M62.0722 118.596C61.1593 119.13 60.4754 119.981 60.1515 120.987L47.7197 161.402C46.6824 164.795 50.0409 167.691 53.0403 166.043L72.984 154.982C73.9144 154.469 74.6128 153.62 74.9359 152.608L87.4832 111.816C88.5306 108.39 85.1289 105.517 82.1173 107.204L62.0722 118.596Z" fill="url(#paint7_linear_42_85)"/>
<path d="M108.109 87.9335C107.196 88.4671 106.512 89.3183 106.188 90.3243L78.79 180.306C77.7528 183.699 81.1112 186.595 84.1106 184.947L104.054 173.886C104.985 173.373 105.683 172.524 106.006 171.512L133.52 81.1528C134.567 77.7269 131.166 74.8537 128.154 76.5414L108.109 87.9335Z" fill="white"/>
<path d="M108.109 87.9335C107.196 88.4671 106.512 89.3183 106.188 90.3243L78.79 180.306C77.7528 183.699 81.1112 186.595 84.1106 184.947L104.054 173.886C104.985 173.373 105.683 172.524 106.006 171.512L133.52 81.1528C134.567 77.7269 131.166 74.8537 128.154 76.5414L108.109 87.9335Z" fill="url(#paint8_linear_42_85)"/>
</mask>
<g mask="url(#mask0_42_85)">
<g filter="url(#filter3_d_42_85)">
<circle cx="5.52317" cy="5.52317" r="5.52317" transform="matrix(-0.597846 -0.801611 -0.801611 0.597846 145.939 133.833)" fill="url(#paint9_linear_42_85)" style="mix-blend-mode:overlay"/>
<circle cx="8.49718" cy="8.49718" r="8.49718" transform="matrix(-0.597846 -0.801611 -0.801611 0.597846 176.771 86.3739)" fill="url(#paint10_linear_42_85)" style="mix-blend-mode:overlay"/>
<circle cx="7.2226" cy="7.2226" r="7.2226" transform="matrix(-0.597846 -0.801611 -0.801611 0.597846 145.194 109.047)" fill="url(#paint11_linear_42_85)" style="mix-blend-mode:overlay"/>
<circle cx="7.2226" cy="7.2226" r="7.2226" transform="matrix(-0.597846 -0.801611 -0.801611 0.597846 154.976 76.6449)" fill="url(#paint12_linear_42_85)" style="mix-blend-mode:overlay"/>
<circle cx="6.11106" cy="6.11106" r="6.11106" transform="matrix(-0.969357 0.245655 0.245655 0.969357 99.5332 124.978)" fill="url(#paint13_linear_42_85)" style="mix-blend-mode:overlay"/>
<circle cx="10.0096" cy="10.0096" r="10.0096" transform="matrix(-0.969357 0.245655 0.245655 0.969357 139.493 76.6812)" fill="url(#paint14_linear_42_85)" style="mix-blend-mode:overlay"/>
<circle cx="7.99139" cy="7.99139" r="7.99139" transform="matrix(-0.969357 0.245655 0.245655 0.969357 90.9521 104.803)" fill="url(#paint15_linear_42_85)" style="mix-blend-mode:overlay"/>
<circle cx="5.57132" cy="5.57132" r="5.57132" transform="matrix(-0.969357 0.245655 0.245655 0.969357 73.8691 126.779)" fill="url(#paint16_linear_42_85)" style="mix-blend-mode:overlay"/>
<circle cx="105.713" cy="100.821" r="6.27648" transform="rotate(-41.166 105.713 100.821)" fill="url(#paint17_linear_42_85)" style="mix-blend-mode:overlay"/>
<circle cx="113.953" cy="122.511" r="3.88429" transform="rotate(-41.166 113.953 122.511)" fill="url(#paint18_linear_42_85)" style="mix-blend-mode:overlay"/>
</g>
</g>
<g filter="url(#filter4_di_42_85)">
<path d="M257.555 130.498L271.01 135.558C265.605 147.633 253.53 155.913 239.5 155.913C220.41 155.913 205 140.503 205 121.413C205 102.438 220.41 86.9128 239.5 86.9128C253.53 86.9128 265.605 95.3078 271.01 107.268L257.555 112.443C254.22 105.773 247.435 101.288 239.5 101.288C228.345 101.288 219.375 110.258 219.375 121.413C219.375 132.568 228.345 141.538 239.5 141.538C247.435 141.538 254.22 137.053 257.555 130.498Z" fill="white"/>
<path d="M257.555 130.498L271.01 135.558C265.605 147.633 253.53 155.913 239.5 155.913C220.41 155.913 205 140.503 205 121.413C205 102.438 220.41 86.9128 239.5 86.9128C253.53 86.9128 265.605 95.3078 271.01 107.268L257.555 112.443C254.22 105.773 247.435 101.288 239.5 101.288C228.345 101.288 219.375 110.258 219.375 121.413C219.375 132.568 228.345 141.538 239.5 141.538C247.435 141.538 254.22 137.053 257.555 130.498Z" fill="url(#paint19_linear_42_85)"/>
<path d="M301.975 103.243C316.58 103.243 328.425 114.973 328.425 129.578C328.425 144.183 316.58 155.913 301.975 155.913C287.485 155.913 275.64 144.183 275.64 129.578C275.64 114.973 287.485 103.243 301.975 103.243ZM301.975 143.148C309.45 143.148 315.545 137.053 315.545 129.578C315.545 122.103 309.45 116.008 301.975 116.008C294.5 116.008 288.52 122.103 288.52 129.578C288.52 137.053 294.5 143.148 301.975 143.148Z" fill="white"/>
<path d="M301.975 103.243C316.58 103.243 328.425 114.973 328.425 129.578C328.425 144.183 316.58 155.913 301.975 155.913C287.485 155.913 275.64 144.183 275.64 129.578C275.64 114.973 287.485 103.243 301.975 103.243ZM301.975 143.148C309.45 143.148 315.545 137.053 315.545 129.578C315.545 122.103 309.45 116.008 301.975 116.008C294.5 116.008 288.52 122.103 288.52 129.578C288.52 137.053 294.5 143.148 301.975 143.148Z" fill="url(#paint20_linear_42_85)"/>
<path d="M348.552 90.1328C348.552 94.3878 345.102 97.9528 340.847 97.9528C336.477 97.9528 333.027 94.3878 333.027 90.1328C333.027 85.8778 336.477 82.4278 340.847 82.4278C345.102 82.4278 348.552 85.8778 348.552 90.1328ZM333.602 154.648V104.508H347.977V154.648H333.602Z" fill="white"/>
<path d="M348.552 90.1328C348.552 94.3878 345.102 97.9528 340.847 97.9528C336.477 97.9528 333.027 94.3878 333.027 90.1328C333.027 85.8778 336.477 82.4278 340.847 82.4278C345.102 82.4278 348.552 85.8778 348.552 90.1328ZM333.602 154.648V104.508H347.977V154.648H333.602Z" fill="url(#paint21_linear_42_85)"/>
<path d="M401.43 128.083C401.43 130.613 401.43 154.648 401.43 154.648H387.055C387.055 154.648 387.055 128.888 387.055 128.543C387.055 121.068 383.72 115.778 377.05 115.778C370.265 115.778 367.505 121.068 367.505 128.543V154.648H353.13V104.508H367.505V107.383C370.38 104.738 373.945 103.243 378.545 103.243C393.035 103.243 401.43 113.478 401.43 128.083Z" fill="white"/>
<path d="M401.43 128.083C401.43 130.613 401.43 154.648 401.43 154.648H387.055C387.055 154.648 387.055 128.888 387.055 128.543C387.055 121.068 383.72 115.778 377.05 115.778C370.265 115.778 367.505 121.068 367.505 128.543V154.648H353.13V104.508H367.505V107.383C370.38 104.738 373.945 103.243 378.545 103.243C393.035 103.243 401.43 113.478 401.43 128.083Z" fill="url(#paint22_linear_42_85)"/>
<path d="M469.095 88.2928H483.355L465.99 154.648H452.075L441.38 115.203L431.03 154.648H417.115L399.175 88.2928H413.55L423.785 127.393L434.135 88.2928H448.51L458.745 127.393L469.095 88.2928ZM399.405 153.728L399.635 154.648H399.175L399.405 153.728Z" fill="white"/>
<path d="M469.095 88.2928H483.355L465.99 154.648H452.075L441.38 115.203L431.03 154.648H417.115L399.175 88.2928H413.55L423.785 127.393L434.135 88.2928H448.51L458.745 127.393L469.095 88.2928ZM399.405 153.728L399.635 154.648H399.175L399.405 153.728Z" fill="url(#paint23_linear_42_85)"/>
<path d="M521.322 104.508H535.582V154.648H521.322V151.313C517.067 154.188 511.892 155.913 506.257 155.913C491.767 155.913 479.922 144.183 479.922 129.578C479.922 114.973 491.767 103.243 506.257 103.243C511.892 103.243 517.067 104.968 521.322 107.843V104.508ZM507.752 143.148C515.227 143.148 521.322 137.053 521.322 129.578C521.322 122.103 515.227 116.008 507.752 116.008C500.277 116.008 494.297 122.103 494.297 129.578C494.297 137.053 500.277 143.148 507.752 143.148Z" fill="white"/>
<path d="M521.322 104.508H535.582V154.648H521.322V151.313C517.067 154.188 511.892 155.913 506.257 155.913C491.767 155.913 479.922 144.183 479.922 129.578C479.922 114.973 491.767 103.243 506.257 103.243C511.892 103.243 517.067 104.968 521.322 107.843V104.508ZM507.752 143.148C515.227 143.148 521.322 137.053 521.322 129.578C521.322 122.103 515.227 116.008 507.752 116.008C500.277 116.008 494.297 122.103 494.297 129.578C494.297 137.053 500.277 143.148 507.752 143.148Z" fill="url(#paint24_linear_42_85)"/>
<path d="M576.34 104.508H590.715L575.879 154.648H555.064L540.229 104.508H554.604L565.414 141.308L576.34 104.508Z" fill="white"/>
<path d="M576.34 104.508H590.715L575.879 154.648H555.064L540.229 104.508H554.604L565.414 141.308L576.34 104.508Z" fill="url(#paint25_linear_42_85)"/>
<path d="M625.986 138.548L637.026 145.448C632.196 151.773 624.491 155.913 615.866 155.913C601.376 155.913 589.531 144.183 589.531 129.578C589.531 114.973 601.376 103.243 615.866 103.243C630.471 103.243 642.316 115.088 642.316 129.578C642.316 133.028 641.511 136.018 641.511 136.018H604.021C606.321 140.273 610.806 143.148 615.866 143.148C619.891 143.148 623.571 141.308 625.986 138.548ZM615.866 116.008C610.806 116.008 606.321 118.998 604.021 123.138H627.826C625.526 118.998 621.041 116.008 615.866 116.008Z" fill="white"/>
<path d="M625.986 138.548L637.026 145.448C632.196 151.773 624.491 155.913 615.866 155.913C601.376 155.913 589.531 144.183 589.531 129.578C589.531 114.973 601.376 103.243 615.866 103.243C630.471 103.243 642.316 115.088 642.316 129.578C642.316 133.028 641.511 136.018 641.511 136.018H604.021C606.321 140.273 610.806 143.148 615.866 143.148C619.891 143.148 623.571 141.308 625.986 138.548ZM615.866 116.008C610.806 116.008 606.321 118.998 604.021 123.138H627.826C625.526 118.998 621.041 116.008 615.866 116.008Z" fill="url(#paint26_linear_42_85)"/>
</g>
<defs>
<filter id="filter0_f_42_85" x="0" y="0" width="220" height="238.341" filterUnits="userSpaceOnUse" color-interpolation-filters="sRGB">
<feFlood flood-opacity="0" result="BackgroundImageFix"/>
<feBlend mode="normal" in="SourceGraphic" in2="BackgroundImageFix" result="shape"/>
<feGaussianBlur stdDeviation="20" result="effect1_foregroundBlur_42_85"/>
</filter>
<filter id="filter1_i_42_85" x="40" y="40" width="140" height="158.341" filterUnits="userSpaceOnUse" color-interpolation-filters="sRGB">
<feFlood flood-opacity="0" result="BackgroundImageFix"/>
<feBlend mode="normal" in="SourceGraphic" in2="BackgroundImageFix" result="shape"/>
<feColorMatrix in="SourceAlpha" type="matrix" values="0 0 0 0 0 0 0 0 0 0 0 0 0 0 0 0 0 0 127 0" result="hardAlpha"/>
<feOffset dy="5"/>
<feComposite in2="hardAlpha" operator="arithmetic" k2="-1" k3="1"/>
<feColorMatrix type="matrix" values="0 0 0 0 1 0 0 0 0 1 0 0 0 0 1 0 0 0 0.5 0"/>
<feBlend mode="overlay" in2="shape" result="effect1_innerShadow_42_85"/>
</filter>
<filter id="filter2_i_42_85" x="40" y="40" width="140" height="158.341" filterUnits="userSpaceOnUse" color-interpolation-filters="sRGB">
<feFlood flood-opacity="0" result="BackgroundImageFix"/>
<feBlend mode="normal" in="SourceGraphic" in2="BackgroundImageFix" result="shape"/>
<feColorMatrix in="SourceAlpha" type="matrix" values="0 0 0 0 0 0 0 0 0 0 0 0 0 0 0 0 0 0 127 0" result="hardAlpha"/>
<feOffset dy="5"/>
<feComposite in2="hardAlpha" operator="arithmetic" k2="-1" k3="1"/>
<feColorMatrix type="matrix" values="0 0 0 0 1 0 0 0 0 1 0 0 0 0 1 0 0 0 0.5 0"/>
<feBlend mode="overlay" in2="shape" result="effect1_innerShadow_42_85"/>
</filter>
<filter id="filter3_d_42_85" x="54.2646" y="64.9501" width="129.113" height="91.1707" filterUnits="userSpaceOnUse" color-interpolation-filters="sRGB">
<feFlood flood-opacity="0" result="BackgroundImageFix"/>
<feColorMatrix in="SourceAlpha" type="matrix" values="0 0 0 0 0 0 0 0 0 0 0 0 0 0 0 0 0 0 127 0" result="hardAlpha"/>
<feOffset dy="7"/>
<feGaussianBlur stdDeviation="5"/>
<feComposite in2="hardAlpha" operator="out"/>
<feColorMatrix type="matrix" values="0 0 0 0 0 0 0 0 0 0 0 0 0 0 0 0 0 0 0.05 0"/>
<feBlend mode="plus-darker" in2="BackgroundImageFix" result="effect1_dropShadow_42_85"/>
<feBlend mode="normal" in="SourceGraphic" in2="effect1_dropShadow_42_85" result="shape"/>
</filter>
<filter id="filter4_di_42_85" x="165" y="42.4278" width="517.316" height="153.485" filterUnits="userSpaceOnUse" color-interpolation-filters="sRGB">
<feFlood flood-opacity="0" result="BackgroundImageFix"/>
<feColorMatrix in="SourceAlpha" type="matrix" values="0 0 0 0 0 0 0 0 0 0 0 0 0 0 0 0 0 0 127 0" result="hardAlpha"/>
<feOffset/>
<feGaussianBlur stdDeviation="20"/>
<feComposite in2="hardAlpha" operator="out"/>
<feColorMatrix type="matrix" values="0 0 0 0 1 0 0 0 0 1 0 0 0 0 1 0 0 0 0.1 0"/>
<feBlend mode="plus-lighter" in2="BackgroundImageFix" result="effect1_dropShadow_42_85"/>
<feBlend mode="normal" in="SourceGraphic" in2="effect1_dropShadow_42_85" result="shape"/>
<feColorMatrix in="SourceAlpha" type="matrix" values="0 0 0 0 0 0 0 0 0 0 0 0 0 0 0 0 0 0 127 0" result="hardAlpha"/>
<feOffset dy="5"/>
<feComposite in2="hardAlpha" operator="arithmetic" k2="-1" k3="1"/>
<feColorMatrix type="matrix" values="0 0 0 0 1 0 0 0 0 1 0 0 0 0 1 0 0 0 0.5 0"/>
<feBlend mode="overlay" in2="shape" result="effect2_innerShadow_42_85"/>
</filter>
<linearGradient id="paint0_linear_42_85" x1="127.846" y1="179.818" x2="164.311" y2="60.5468" gradientUnits="userSpaceOnUse">
<stop stop-color="#868686"/>
<stop offset="1" stop-color="white"/>
</linearGradient>
<linearGradient id="paint1_linear_42_85" x1="57.7957" y1="168.682" x2="77.4055" y2="104.541" gradientUnits="userSpaceOnUse">
<stop stop-color="#868686"/>
<stop offset="1" stop-color="white"/>
</linearGradient>
<linearGradient id="paint2_linear_42_85" x1="88.7803" y1="187.56" x2="123.528" y2="73.9045" gradientUnits="userSpaceOnUse">
<stop stop-color="#868686"/>
<stop offset="1" stop-color="white"/>
</linearGradient>
<linearGradient id="paint3_linear_42_85" x1="127.846" y1="179.818" x2="164.311" y2="60.5468" gradientUnits="userSpaceOnUse">
<stop stop-color="#868686"/>
<stop offset="1" stop-color="white"/>
</linearGradient>
<linearGradient id="paint4_linear_42_85" x1="57.7957" y1="168.682" x2="77.4055" y2="104.541" gradientUnits="userSpaceOnUse">
<stop stop-color="#868686"/>
<stop offset="1" stop-color="white"/>
</linearGradient>
<linearGradient id="paint5_linear_42_85" x1="88.7803" y1="187.56" x2="123.528" y2="73.9045" gradientUnits="userSpaceOnUse">
<stop stop-color="#868686"/>
<stop offset="1" stop-color="white"/>
</linearGradient>
<linearGradient id="paint6_linear_42_85" x1="127.846" y1="179.818" x2="164.311" y2="60.5468" gradientUnits="userSpaceOnUse">
<stop stop-color="#19FB9B"/>
<stop offset="1" stop-color="#9945FF"/>
</linearGradient>
<linearGradient id="paint7_linear_42_85" x1="57.7957" y1="168.682" x2="77.4055" y2="104.541" gradientUnits="userSpaceOnUse">
<stop stop-color="#19FB9B"/>
<stop offset="1" stop-color="#9945FF"/>
</linearGradient>
<linearGradient id="paint8_linear_42_85" x1="88.7803" y1="187.56" x2="123.528" y2="73.9045" gradientUnits="userSpaceOnUse">
<stop stop-color="#19FB9B"/>
<stop offset="1" stop-color="#9945FF"/>
</linearGradient>
<linearGradient id="paint9_linear_42_85" x1="5.52317" y1="0" x2="5.52317" y2="11.0463" gradientUnits="userSpaceOnUse">
<stop stop-color="#D9D9D9" stop-opacity="0"/>
<stop offset="1" stop-color="white"/>
</linearGradient>
<linearGradient id="paint10_linear_42_85" x1="8.49718" y1="0" x2="8.49718" y2="16.9944" gradientUnits="userSpaceOnUse">
<stop stop-color="#D9D9D9" stop-opacity="0"/>
<stop offset="1" stop-color="white"/>
</linearGradient>
<linearGradient id="paint11_linear_42_85" x1="7.2226" y1="0" x2="7.2226" y2="14.4452" gradientUnits="userSpaceOnUse">
<stop stop-color="#D9D9D9" stop-opacity="0"/>
<stop offset="1" stop-color="white"/>
</linearGradient>
<linearGradient id="paint12_linear_42_85" x1="7.2226" y1="0" x2="7.2226" y2="14.4452" gradientUnits="userSpaceOnUse">
<stop stop-color="#D9D9D9" stop-opacity="0"/>
<stop offset="1" stop-color="white"/>
</linearGradient>
<linearGradient id="paint13_linear_42_85" x1="6.11106" y1="0" x2="6.11106" y2="12.2221" gradientUnits="userSpaceOnUse">
<stop stop-color="#D9D9D9" stop-opacity="0"/>
<stop offset="1" stop-color="white"/>
</linearGradient>
<linearGradient id="paint14_linear_42_85" x1="10.0096" y1="0" x2="10.0096" y2="20.0192" gradientUnits="userSpaceOnUse">
<stop stop-color="#D9D9D9" stop-opacity="0"/>
<stop offset="1" stop-color="white"/>
</linearGradient>
<linearGradient id="paint15_linear_42_85" x1="7.99139" y1="0" x2="7.99139" y2="15.9828" gradientUnits="userSpaceOnUse">
<stop stop-color="#D9D9D9" stop-opacity="0"/>
<stop offset="1" stop-color="white"/>
</linearGradient>
<linearGradient id="paint16_linear_42_85" x1="5.57132" y1="0" x2="5.57132" y2="11.1426" gradientUnits="userSpaceOnUse">
<stop stop-color="#D9D9D9" stop-opacity="0"/>
<stop offset="1" stop-color="white"/>
</linearGradient>
<linearGradient id="paint17_linear_42_85" x1="105.713" y1="94.545" x2="105.713" y2="107.098" gradientUnits="userSpaceOnUse">
<stop stop-color="#D9D9D9" stop-opacity="0"/>
<stop offset="1" stop-color="white"/>
</linearGradient>
<linearGradient id="paint18_linear_42_85" x1="113.953" y1="118.627" x2="113.953" y2="126.396" gradientUnits="userSpaceOnUse">
<stop stop-color="#D9D9D9" stop-opacity="0"/>
<stop offset="1" stop-color="white"/>
</linearGradient>
<linearGradient id="paint19_linear_42_85" x1="423.7" y1="64.7078" x2="423.7" y2="191.708" gradientUnits="userSpaceOnUse">
<stop stop-color="white" stop-opacity="0"/>
<stop offset="1" stop-color="#868686"/>
</linearGradient>
<linearGradient id="paint20_linear_42_85" x1="423.7" y1="64.7078" x2="423.7" y2="191.708" gradientUnits="userSpaceOnUse">
<stop stop-color="white" stop-opacity="0"/>
<stop offset="1" stop-color="#868686"/>
</linearGradient>
<linearGradient id="paint21_linear_42_85" x1="423.7" y1="64.7078" x2="423.7" y2="191.708" gradientUnits="userSpaceOnUse">
<stop stop-color="white" stop-opacity="0"/>
<stop offset="1" stop-color="#868686"/>
</linearGradient>
<linearGradient id="paint22_linear_42_85" x1="423.7" y1="64.7078" x2="423.7" y2="191.708" gradientUnits="userSpaceOnUse">
<stop stop-color="white" stop-opacity="0"/>
<stop offset="1" stop-color="#868686"/>
</linearGradient>
<linearGradient id="paint23_linear_42_85" x1="423.7" y1="64.7078" x2="423.7" y2="191.708" gradientUnits="userSpaceOnUse">
<stop stop-color="white" stop-opacity="0"/>
<stop offset="1" stop-color="#868686"/>
</linearGradient>
<linearGradient id="paint24_linear_42_85" x1="423.7" y1="64.7078" x2="423.7" y2="191.708" gradientUnits="userSpaceOnUse">
<stop stop-color="white" stop-opacity="0"/>
<stop offset="1" stop-color="#868686"/>
</linearGradient>
<linearGradient id="paint25_linear_42_85" x1="423.7" y1="64.7078" x2="423.7" y2="191.708" gradientUnits="userSpaceOnUse">
<stop stop-color="white" stop-opacity="0"/>
<stop offset="1" stop-color="#868686"/>
</linearGradient>
<linearGradient id="paint26_linear_42_85" x1="423.7" y1="64.7078" x2="423.7" y2="191.708" gradientUnits="userSpaceOnUse">
<stop stop-color="white" stop-opacity="0"/>
<stop offset="1" stop-color="#868686"/>
</linearGradient>
</defs>
</svg>
